<?xml version="1.0" encoding="UTF-8"?>
<svg id="Layer_1" data-name="Layer 1" xmlns="http://www.w3.org/2000/svg" xmlns:xlink="http://www.w3.org/1999/xlink" viewBox="0 0 466.7 167.35">
  <defs>
    <style>
      .cls-1 {
        clip-path: url(#clippath);
      }

      .cls-2 {
        fill: none;
      }

      .cls-2, .cls-3 {
        stroke-width: 0px;
      }

      .cls-4 {
        clip-path: url(#clippath-1);
      }

      .cls-3 {
        fill: #fff;
      }
    </style>
    <clipPath id="clippath">
      <rect class="cls-2" y="142.09" width="215.39" height="23.95"/>
    </clipPath>
    <clipPath id="clippath-1">
      <rect class="cls-2" x="243.42" y="5.96" width="215.39" height="23.95"/>
    </clipPath>
  </defs>
  <g class="cls-1">
    <path class="cls-3" d="M0,142.09h215.38v23.95H0v-23.95Z"/>
  </g>
  <g class="cls-4">
    <path class="cls-3" d="M243.42,5.96h215.38v23.95h-215.38V5.96Z"/>
  </g>
  <path class="cls-3" d="M48.23,101.26c23.09,0,37.28-10.99,37.28-29.35,0-15.44-10.16-24.62-34.36-30.32-14.88-3.47-20.03-7.23-20.03-13.21,0-6.4,5.7-10.29,15.02-10.29,10.15,0,16.27,5.29,16.27,14.05h21.28C83.69,12.52,68.95,0,45.86,0S9.56,10.99,9.56,28.79c0,15.86,10.71,25.32,33.52,30.18,13.77,2.92,20.03,6.96,20.03,13.77s-5.84,10.29-15.02,10.29c-10.71,0-17.67-5.42-17.67-14.74H8.73c0,20.17,15.02,32.96,39.5,32.96Z"/>
  <path class="cls-3" d="M155.61,99.31h22.11V22.67h30.88V1.95h-83.88v20.72h30.88v76.64Z"/>
  <path class="cls-3" d="M304.24,167.35c32.13,0,52.85-23.79,50.63-57.17h-54.94v17.11h31.58c-2.78,11.82-12.8,19.75-26.98,19.75-17.81,0-29.21-12.8-29.21-30.32s11.82-30.32,28.93-30.32c10.85,0,19.89,5.01,24.62,13.49h23.79c-5.84-20.45-25.18-33.8-48.82-33.8-29.63,0-50.63,21.01-50.63,50.63s21.15,50.63,51.05,50.63Z"/>
  <path class="cls-3" d="M401.18,165.41h65.52v-18.78h-43.54v-21.28h38.25v-18.5h-38.25v-20.17h42.01v-18.64h-63.98v97.36Z"/>
</svg>